HIERARCHY
ROOT Hips
{
	OFFSET 0.000000 0.000000 0.000000 
	CHANNELS 6 Xposition Yposition Zposition Yrotation Zrotation Xrotation 
	JOINT Lumbar
	{
		OFFSET 0.000000 0.000000 0.000000 
		CHANNELS 3 Zrotation Xrotation Yrotation
		JOINT Neck
		{
			OFFSET 0.000000 0.445665 0.000000 
			CHANNELS 3 Zrotation Xrotation Yrotation
			End Site
			{
				OFFSET 0.000000 0.227535 0.000000 
			}
		}
		JOINT RightShoulder
		{
			OFFSET 0.019635 0.377685 0.194865 
			CHANNELS 3 Zrotation Xrotation Yrotation
			JOINT RightElbow
			{
				OFFSET 0.000000 -0.243375 0.000000 
				CHANNELS 2 Zrotation Yrotation
				JOINT RightWrist
				{
					OFFSET 0.000000 -0.264825 0.000000 
					CHANNELS 2 Zrotation Xrotation
					End Site
					{
						OFFSET 0.006600 -0.176220 0.000990 
					}
				}
			}
		}
		JOINT LeftShoulder
		{
			OFFSET 0.019635 0.377685 -0.194865 
			CHANNELS 3 Zrotation Xrotation Yrotation
			JOINT LeftElbow
			{
				OFFSET 0.000000 -0.243375 0.000000 
				CHANNELS 2 Zrotation Yrotation
				JOINT LeftWrist
				{
					OFFSET 0.000000 -0.264825 0.000000 
					CHANNELS 2 Zrotation Xrotation
					End Site
					{
						OFFSET 0.006600 -0.176220 -0.000990 
					}
				}
			}
		}
	}
	JOINT RightHip
	{
		OFFSET 0.052140 -0.069960 0.075570 
		CHANNELS 3 Zrotation Xrotation Yrotation
		JOINT RightKnee
		{
			OFFSET 0.000000 -0.402270 0.000000 
			CHANNELS 1 Zrotation
			JOINT RightAnkle
			{
				OFFSET 0.000000 -0.404085 0.000000 
				CHANNELS 3 Zrotation Xrotation Yrotation
				End Site
				{
					OFFSET 0.204105 -0.089430 0.008415 
				}
			}
		}
	}
	JOINT LeftHip
	{
		OFFSET 0.052140 -0.069960 -0.075570 
		CHANNELS 3 Zrotation Xrotation Yrotation
		JOINT LeftKnee
		{
			OFFSET 0.000000 -0.402270 0.000000 
			CHANNELS 1 Zrotation
			JOINT LeftAnkle
			{
				OFFSET 0.000000 -0.404085 0.000000 
				CHANNELS 3 Zrotation Xrotation Yrotation
				End Site
				{
					OFFSET 0.204105 -0.089430 -0.008415 
				}
			}
		}
	}
}
MOTION
Frames: 17
Frame Time: 0.02
-0 0.95578 0 182.24074 0 -3.25377 0.34572 1.96179 -2.37177 -26.35038 5.74149 0.60383 -14.78979 -69.32576 -74.9787 20.02312 77.38158 -16.44587 -2.8526 -7.52081 60.80992 68.69251 22.29519 -73.91768 -26.68234 2.98987 -2.95762 3.70762 7.22811 -7.54184 -1.80256 -3.73975 -6.69008 -2.16398 3.2064 2.89221 -7.06447 4.21147 1.16961 -2.43168
0.00014 0.9558 -0.00012 182.33214 0 -3.24429 0.34558 1.95284 -2.38466 -26.35037 5.75266 0.59732 -14.70598 -69.30604 -74.94242 19.98746 77.43687 -16.4411 -2.83535 -7.38324 60.77249 68.64481 22.23902 -73.75167 -26.83169 2.93166 -2.98777 3.70705 7.15769 -7.49443 -1.81477 -3.74092 -6.70622 -2.15052 3.2069 2.85004 -7.04172 4.18318 1.15373 -2.47013
0.00028 0.95582 -0.00023 182.42315 0 -3.23489 0.34552 1.94399 -2.3976 -26.35055 5.7639 0.59097 -14.6225 -69.28679 -74.90611 19.95206 77.49141 -16.4363 -2.81827 -7.24648 60.735 68.59747 22.18345 -73.58723 -26.97929 2.87392 -3.01769 3.70654 7.08757 -7.44744 -1.82689 -3.7421 -6.72238 -2.13704 3.20742 2.80806 -7.01928 4.1551 1.13793 -2.50839
0.00042 0.95583 -0.00034 182.51308 0 -3.22576 0.34546 1.9354 -2.41035 -26.35073 5.77558 0.58494 -14.54034 -69.26899 -74.86947 19.91737 77.54355 -16.43138 -2.80168 -7.11261 60.69702 68.55122 22.1299 -73.42764 -27.12161 2.81743 -3.04683 3.70635 7.01849 -7.4018 -1.83888 -3.7433 -6.73894 -2.12327 3.2081 2.76667 -6.99792 4.1277 1.12235 -2.54611
0.00056 0.95585 -0.00046 182.60824 0 -3.21522 0.34503 1.9254 -2.42353 -26.35003 5.78497 0.5769 -14.45212 -69.24323 -74.83478 19.87897 77.60848 -16.42714 -2.78248 -6.96464 60.66176 68.49936 22.06582 -73.24256 -27.29217 2.75422 -3.07993 3.70454 6.94453 -7.34915 -1.85165 -3.74437 -6.7536 -2.11091 3.208 2.72242 -6.97095 4.09684 1.10565 -2.58653
0.00069 0.95586 -0.00057 182.69255 0 -3.20765 0.34565 1.91839 -2.43616 -26.3518 5.79916 0.57334 -14.37619 -69.23454 -74.79586 19.84841 77.64625 -16.42144 -2.76883 -6.84582 60.62072 68.45931 22.02395 -73.11142 -27.40266 2.70534 -3.10474 3.70612 6.88057 -7.3113 -1.86269 -3.74572 -6.77212 -2.09565 3.20951 2.68409 -6.95579 4.07326 1.09133 -2.6213
0.00079 0.95587 -0.00064 182.74577 0 -3.20877 0.34688 1.91996 -2.44425 -26.35534 5.8278 0.58051 -14.33851 -69.27273 -74.74477 19.83977 77.60771 -16.41162 -2.77069 -6.81424 60.56232 68.45273 22.04559 -73.1324 -27.34571 2.69562 -3.10526 3.7179 6.84685 -7.31541 -1.8698 -3.7478 -6.80331 -2.07126 3.2159 2.66316 -6.97465 4.07053 1.08331 -2.63979
0.00087 0.95588 -0.0007 182.78828 0 -3.21282 0.34954 1.92452 -2.45226 -26.36221 5.86111 0.59245 -14.31246 -69.32822 -74.68942 19.83898 77.54193 -16.40035 -2.77812 -6.81097 60.49828 68.4579 22.08925 -73.2073 -27.22838 2.70042 -3.09762 3.73296 6.82274 -7.3343 -1.87501 -3.75017 -6.83805 -2.04411 3.22382 2.64793 -7.00523 4.07506 1.07772 -2.65264
0.00095 0.9559 -0.00076 182.83656 0 -3.21522 0.35308 1.92751 -2.46237 -26.37101 5.89152 0.60337 -14.27813 -69.37609 -74.63628 19.83439 77.48946 -16.38978 -2.78287 -6.79017 60.43766 68.45708 22.12149 -73.25545 -27.13955 2.69885 -3.09468 3.746 6.79245 -7.34565 -1.88055 -3.75242 -6.86993 -2.019 3.23076 2.62946 -7.02951 4.07576 1.07117 -2.66865
0.00106 0.95591 -0.00083 182.88116 0 -3.21891 0.35034 1.93134 -2.46411 -26.36572 5.92518 0.60971 -14.25617 -69.42312 -74.58203 19.83076 77.43316 -16.379 -2.78819 -6.78847 60.37343 68.45898 22.1598 -73.31296 -27.0461 2.69632 -3.08775 3.7613 6.76971 -7.36032 -1.88836 -3.75463 -6.90711 -1.99069 3.23894 2.61402 -7.05773 4.07859 1.06399 -2.68249
0.0011 0.95592 -0.00087 182.93068 0 -3.22065 0.3608 1.93418 -2.48285 -26.38999 5.95323 0.62641 -14.21155 -69.47578 -74.52904 19.82705 77.37822 -16.36836 -2.79371 -6.75443 60.31538 68.45804 22.19058 -73.36393 -26.9481 2.69922 -3.08695 3.77267 6.73369 -7.3718 -1.89096 -3.75697 -6.93403 -1.96825 3.24486 2.59328 -7.08072 4.07886 1.05873 -2.69906
0.00095 0.95592 -0.00086 182.99816 0 -3.21609 0.40925 1.9331 -2.55195 -26.49994 5.96412 0.67309 -14.09846 -69.54177 -74.48083 19.8207 77.33516 -16.35805 -2.79798 -6.61795 60.27574 68.44624 22.19614 -73.38235 -26.8508 2.71385 -3.10701 3.77245 6.65713 -7.36879 -1.87997 -3.75965 -6.93246 -1.96385 3.24433 2.55971 -7.0848 4.06891 1.05782 -2.72862
0.00073 0.95591 -0.00083 183.07063 0 -3.2095 0.47057 1.93101 -2.63754 -26.63862 5.9693 0.72956 -13.96276 -69.61243 -74.434 19.81409 77.29421 -16.34801 -2.80231 -6.44909 60.24253 68.43123 22.1932 -73.39255 -26.75131 2.7334 -3.13317 3.76816 6.56721 -7.36239 -1.86378 -3.76244 -6.92038 -1.96523 3.24143 2.52016 -7.08347 4.05636 1.05878 -2.76046
0.00055 0.95591 -0.00081 183.13964 0 -3.20396 0.52475 1.9297 -2.71331 -26.76098 5.97746 0.77986 -13.83936 -69.67967 -74.38629 19.80797 77.25128 -16.33812 -2.80694 -6.29911 60.20637 68.41778 22.1935 -73.40742 -26.65378 2.7505 -3.1552 3.76568 6.48433 -7.35899 -1.84974 -3.76516 -6.91253 -1.96318 3.23948 2.48111 -7.08569 4.04595 1.0591 -2.78843
0.00033 0.95591 -0.00079 183.21327 0 -3.198 0.58446 1.92716 -2.79882 -26.89726 5.98417 0.83754 -13.70769 -69.7531 -74.33934 19.80062 77.21144 -16.32704 -2.81049 -6.13255 60.17006 68.40425 22.19712 -73.42036 -26.54998 2.76898 -3.18259 3.76346 6.3975 -7.35019 -1.83641 -3.76799 -6.90681 -1.96438 3.23812 2.45109 -7.08383 4.03186 1.05867 -2.82771
0.00017 0.9559 -0.00076 183.27867 0 -3.19239 0.63567 1.92687 -2.86807 -27.01127 5.99246 0.88215 -13.58788 -69.81442 -74.29139 19.79557 77.16636 -16.31848 -2.8161 -5.99245 60.13572 68.39004 22.19164 -73.43451 -26.45962 2.78559 -3.20051 3.75971 6.31587 -7.35131 -1.82055 -3.7706 -6.8945 -1.96028 3.23497 2.40145 -7.08887 4.02456 1.06014 -2.84463
0.00019 0.95589 -0.00068 183.31961 0 -3.1882 0.66056 1.93311 -2.88747 -27.05718 6.00667 0.88786 -13.505 -69.84187 -74.23877 19.7978 77.1037 -16.31738 -2.82863 -5.93331 60.10469 68.37415 22.16184 -73.45501 -26.40613 2.79566 -3.18941 3.75242 6.2494 -7.38328 -1.79756 -3.77255 -6.86325 -1.93967 3.22718 2.29324 -7.11568 4.03811 1.06715 -2.79404
